<svg width="46" height="51" viewBox="0 0 46 51" fill="none" xmlns="http://www.w3.org/2000/svg">
<path d="M38.7368 42.5979H7.26316L0 50.0408V7.86471C0 3.77115 3.26842 0.421875 7.26316 0.421875H38.7368C42.7316 0.421875 46 3.77115 46 7.86471V35.1551C46 39.2487 42.7316 42.5979 38.7368 42.5979Z" fill="#FB1B41"/>
<path d="M20.5791 17.9424H25.4212V31.7074H20.5791V17.9424Z" fill="#E4E3E3"/>
<path d="M23.0002 14.1881C24.3373 14.1881 25.4212 13.0676 25.4212 11.6854C25.4212 10.3031 24.3373 9.18262 23.0002 9.18262C21.663 9.18262 20.5791 10.3031 20.5791 11.6854C20.5791 13.0676 21.663 14.1881 23.0002 14.1881Z" fill="#E4E3E3"/>
</svg>
