<svg width="40" height="40" viewBox="0 0 40 40" fill="none" xmlns="http://www.w3.org/2000/svg">
<path d="M7.84399 0.00683594C3.53519 0.00683594 0.00878906 3.53328 0.00878906 7.84204V32.1561C0.00878906 36.4649 3.53519 39.99 7.84399 39.99H32.158C36.4668 39.99 39.992 36.4649 39.992 32.1561V7.84204C39.992 3.53324 36.4668 0.00683594 32.158 0.00683594H7.84399ZM21.3645 7.47792C25.1255 7.78176 27.3103 10.2106 27.5703 13.3158C27.7723 14.914 27.7158 16.0998 27.4852 16.9726C29.6305 17.0435 32.1408 18.0054 32.3007 21.4965V24.9329C32.0783 27.934 31.0104 31.6401 25.5317 32.4265C24.2981 32.6036 22.9137 32.485 21.1179 32.4728C19.3124 32.4252 17.7381 32.4338 16.3613 32.459C10.8036 32.5608 7.74255 30.1176 7.71387 24.8878C7.66923 23.108 7.73987 21.1784 7.73391 18.7846C7.71159 17.2676 7.70319 15.6828 7.73767 14.2093C7.74835 13.9218 7.71083 13.6066 7.78647 13.297C8.02567 9.92524 10.7337 7.94912 13.8947 7.51044L21.3645 7.47788L21.3645 7.47792ZM15.1185 12.1683C11.9171 12.6924 11.7589 16.3459 15.1185 16.7973H21.1955C24.3969 16.2732 24.5551 12.6197 21.1955 12.1683H15.1185ZM13.7382 22.2811C10.4424 22.7927 10.3939 26.9425 13.8559 27.3719L25.0199 27.412C28.2877 26.9047 28.278 22.7591 24.9022 22.3199L13.7382 22.2811Z" fill="#FB1B41"/>
</svg>
