<svg width="102" height="114" viewBox="0 0 102 114" fill="none" xmlns="http://www.w3.org/2000/svg">
<circle cx="47.5" cy="45.5" r="45.5" fill="#C4C4C4"/>
<path d="M89.374 0C95.9365 0 101.221 5.40075 101.533 11.7634V114L89.045 103.202L82.192 96.8572L74.6985 90.2132L77.817 100.68H12.318C5.77296 100.68 0.470459 95.6318 0.470459 88.9164V11.7847C0.470459 5.42213 5.77646 0.021375 12.339 0.021375H89.339L89.374 0ZM60.8245 26.9966H60.6775L59.729 27.9443C69.41 30.8014 74.093 35.2545 74.093 35.2545C67.8595 32.0803 62.2245 30.4843 56.6105 29.8359C52.5645 29.2054 48.4975 29.5403 45.071 29.8359H44.1225C41.935 29.8359 37.2695 30.8014 31.015 33.3414C28.845 34.3069 27.5885 34.9374 27.5885 34.9374C27.5885 34.9374 32.254 30.1672 42.572 27.6272L41.935 26.9966C41.935 26.9966 34.1335 26.6796 25.7125 33.0279C25.7125 33.0279 17.2915 47.9655 17.2915 66.3694C17.2915 66.3694 21.957 74.6273 34.7565 74.9408C34.7565 74.9408 36.6325 72.4185 38.512 70.1919C31.33 67.9654 28.523 63.5122 28.523 63.5122C28.523 63.5122 29.16 63.8293 30.091 64.4599H30.364C30.511 64.4599 30.5845 64.5347 30.6545 64.6095V64.6451C30.728 64.7199 30.8015 64.7734 30.9275 64.7734C32.478 65.4217 34.0075 66.0523 35.2675 66.6829C37.455 67.6305 40.2445 68.5924 43.671 69.2265C48.011 69.8749 52.9845 70.1741 58.6545 69.2265C61.444 68.5781 64.251 67.9654 67.058 66.6829C68.864 65.7353 71.104 64.7912 73.5645 63.1774C73.5645 63.1774 70.775 67.6305 63.2815 69.8571C64.8145 72.0658 66.981 74.6059 66.981 74.6059C79.7945 74.3102 84.7715 66.0523 85.0444 66.405C85.0444 48.0189 76.5675 33.0636 76.5675 33.0636C68.948 27.2923 61.801 27.0714 60.5445 27.0714L60.8 26.9788L60.8245 26.9966ZM61.6085 47.9655C64.8915 47.9655 67.534 50.8048 67.534 54.2925C67.534 57.8194 64.874 60.6551 61.6085 60.6551C58.3255 60.6551 55.683 57.8158 55.683 54.3281C55.683 50.8013 58.343 47.9655 61.6085 47.9655ZM40.409 47.9655C43.671 47.9655 46.317 50.8048 46.317 54.2925C46.317 57.8194 43.657 60.6551 40.3915 60.6551C37.1085 60.6551 34.4485 57.8158 34.4485 54.3281C34.4485 50.8013 37.1085 47.9655 40.3915 47.9655H40.409Z" fill="#738ADB"/>
</svg>
