<svg width="20" height="22" viewBox="0 0 20 22" fill="none" xmlns="http://www.w3.org/2000/svg">
<path d="M17.5938 0.785156C18.8925 0.785156 19.9384 1.76461 20 2.91851V21.4597L17.5287 19.5014L16.1725 18.3507L14.6895 17.1458L15.3067 19.044H2.34459C1.04935 19.044 0 18.1285 0 16.9106V2.92238C0 1.76849 1.05004 0.789033 2.34874 0.789033H17.5868L17.5938 0.785156ZM11.9439 5.68114H11.9148L11.7271 5.85299C13.6429 6.37115 14.5697 7.17875 14.5697 7.17875C13.3361 6.60309 12.221 6.31365 11.11 6.19606C10.3093 6.0817 9.50442 6.14244 8.82632 6.19606H8.63862C8.20572 6.19606 7.28242 6.37115 6.04468 6.8318C5.61524 7.00689 5.36658 7.12124 5.36658 7.12124C5.36658 7.12124 6.28987 6.25615 8.33178 5.79549L8.20572 5.68114C8.20572 5.68114 6.66182 5.62364 4.99532 6.77495C4.99532 6.77495 3.32883 9.48395 3.32883 12.8216C3.32883 12.8216 4.25212 14.3192 6.78511 14.3761C6.78511 14.3761 7.15636 13.9186 7.52831 13.5148C6.10701 13.111 5.55152 12.3034 5.55152 12.3034C5.55152 12.3034 5.67758 12.3609 5.86182 12.4753H5.91584C5.94494 12.4753 5.95948 12.4889 5.97333 12.5024V12.5089C5.98788 12.5225 6.00242 12.5321 6.02736 12.5321C6.3342 12.6497 6.63688 12.7641 6.88623 12.8784C7.31913 13.0503 7.87117 13.2247 8.54926 13.3397C9.40814 13.4573 10.3924 13.5116 11.5145 13.3397C12.0665 13.2222 12.622 13.111 13.1775 12.8784C13.5349 12.7066 13.9782 12.5354 14.4651 12.2427C14.4651 12.2427 13.9131 13.0503 12.4301 13.4541C12.7335 13.8547 13.1623 14.3153 13.1623 14.3153C15.698 14.2617 16.6829 12.7641 16.737 12.8281C16.737 9.49364 15.0594 6.78141 15.0594 6.78141C13.5515 5.73476 12.1371 5.6947 11.8885 5.6947L11.939 5.67791L11.9439 5.68114ZM12.099 9.48395C12.7487 9.48395 13.2717 9.99888 13.2717 10.6314C13.2717 11.271 12.7453 11.7853 12.099 11.7853C11.4494 11.7853 10.9264 11.2704 10.9264 10.6378C10.9264 9.99823 11.4528 9.48395 12.099 9.48395ZM7.90372 9.48395C8.54926 9.48395 9.0729 9.99888 9.0729 10.6314C9.0729 11.271 8.54649 11.7853 7.90026 11.7853C7.25056 11.7853 6.72416 11.2704 6.72416 10.6378C6.72416 9.99823 7.25056 9.48395 7.90026 9.48395H7.90372Z" fill="#757575"/>
</svg>
