<svg width="113" height="113" viewBox="0 0 113 113" fill="none" xmlns="http://www.w3.org/2000/svg">
<ellipse cx="57" cy="59" rx="53" ry="54" fill="#C4C4C4"/>
<path fill-rule="evenodd" clip-rule="evenodd" d="M0 56.8155C0 84.9054 20.4012 108.263 47.0833 113V72.1929H32.9583V56.5H47.0833V43.9429C47.0833 29.8179 56.1845 21.9738 69.0571 21.9738C73.1345 21.9738 77.5321 22.6 81.6095 23.2262V37.6667H74.3917C67.4845 37.6667 65.9167 41.1179 65.9167 45.5155V56.5H80.9833L78.4738 72.1929H65.9167V113C92.5988 108.263 113 84.9101 113 56.8155C113 25.5663 87.575 0 56.5 0C25.425 0 0 25.5663 0 56.8155Z" fill="#4064AC"/>
</svg>
