<svg width="113" height="118" viewBox="0 0 113 118" fill="none" xmlns="http://www.w3.org/2000/svg">
<path fill-rule="evenodd" clip-rule="evenodd" d="M56.5 0C25.2838 0 0 26.4025 0 59C0 85.1075 16.1731 107.159 38.6319 114.976C41.4569 115.493 42.5163 113.722 42.5163 112.174C42.5163 110.772 42.4456 106.126 42.4456 101.185C28.25 103.914 24.5775 97.5713 23.4475 94.2525C22.8119 92.5562 20.0575 87.32 17.6562 85.9187C15.6788 84.8125 12.8538 82.0837 17.5856 82.01C22.035 81.9362 25.2131 86.2875 26.2725 88.0575C31.3575 96.9812 39.4794 94.4737 42.7281 92.925C43.2225 89.09 44.7056 86.5088 46.33 85.0337C33.7588 83.5587 20.6225 78.47 20.6225 55.9025C20.6225 49.4862 22.8119 44.1763 26.4138 40.0462C25.8488 38.5713 23.8713 32.5238 26.9788 24.4112C26.9788 24.4112 31.7106 22.8625 42.5163 30.4587C47.0363 29.1313 51.8387 28.4675 56.6413 28.4675C61.4438 28.4675 66.2463 29.1313 70.7663 30.4587C81.5719 22.7887 86.3037 24.4112 86.3037 24.4112C89.4113 32.5238 87.4338 38.5713 86.8688 40.0462C90.4706 44.1763 92.66 49.4125 92.66 55.9025C92.66 78.5437 79.4531 83.5587 66.8819 85.0337C68.93 86.8775 70.6956 90.4175 70.6956 95.9487C70.6956 103.84 70.625 110.183 70.625 112.174C70.625 113.722 71.6844 115.566 74.5094 114.976C85.7255 111.022 95.4717 103.494 102.376 93.4529C109.281 83.4115 112.997 71.3619 113 59C113 26.4025 87.7163 0 56.5 0Z" fill="#E4E3E3"/>
</svg>
