<svg width="125" height="125" viewBox="0 0 125 125" fill="none" xmlns="http://www.w3.org/2000/svg">
<rect width="125" height="125" fill="#FB1B41"/>
<path d="M35.5 83.7917H92.5C93.0771 83.7899 93.6428 83.6371 94.1362 83.3495C94.6295 83.0619 95.0319 82.6505 95.3 82.1597C95.5681 81.6688 95.6917 81.117 95.6575 80.5636C95.6234 80.0103 95.4328 79.4763 95.1062 79.0193L66.6062 39.4776C65.425 37.8382 62.5814 37.8382 61.397 39.4776L32.897 79.0193C32.5671 79.4754 32.3737 80.0096 32.3377 80.5638C32.3017 81.1181 32.4245 81.6713 32.6928 82.1632C32.9611 82.6551 33.3647 83.067 33.8596 83.3541C34.3545 83.6412 34.9219 83.7925 35.5 83.7917Z" fill="#E4E3E3"/>
</svg>
