<svg width="49" height="46" viewBox="0 0 49 46" fill="none" xmlns="http://www.w3.org/2000/svg">
<path d="M27.5665 37.2179V22.9146H31.9044V35.3912C31.9584 40.8824 31.5777 42.6488 29.0997 44.3675C25.4075 46.5083 20.3572 44.891 18.9335 41.1602L22.4464 38.9052C23.6836 41.2438 24.8739 41.5706 26.4119 41.0259C27.5493 40.6231 27.6158 38.9125 27.5665 37.2179ZM33.9061 40.6312L37.4145 38.5108C38.3547 40.025 39.224 40.8571 40.7871 41.1973C42.908 41.468 45.0423 40.7055 44.5641 38.3453C44.0725 36.4167 40.2217 35.948 37.6004 33.8864C34.9393 32.0135 34.3164 27.4632 36.5023 24.8633C38.6994 21.8989 45.279 21.4166 47.699 26.2909L44.3175 28.5644C43.084 25.5505 38.6369 26.0857 39.5989 29.4707C40.475 31.8158 47.8632 31.8158 48.8414 37.5535C49.4486 40.5979 48.2584 42.9632 46.1907 44.1844C42.629 46.288 36.2719 45.5793 33.9061 40.6313V40.6312ZM24.7923 36.1268V24.4347L23.3596 21.9383H16.223L8.10529 36.1268H24.7923ZM25.6082 20.0075H28.6683L26.3844 16.255V3.64138H28.8799C30.7466 3.64138 30.7466 0.874023 28.8799 0.874023H10.703C8.83637 0.874023 8.83637 3.64138 10.703 3.64138H13.1984V16.255L0.551732 38.2318C-0.635656 40.3494 0.10968 41.6726 2.63136 41.6726H17.5582V38.9052H3.24568L15.8745 16.962V3.64138H23.7082V16.962L25.6081 20.0075H25.6082Z" fill="#FB1B41"/>
</svg>
