<svg width="20" height="21" viewBox="0 0 20 21" fill="none" xmlns="http://www.w3.org/2000/svg">
<path d="M17.0409 17.7146H14.0776V12.9172C14.0776 11.7732 14.0578 10.3006 12.5363 10.3006C10.9929 10.3006 10.7567 11.547 10.7567 12.8339V17.7142H7.79344V7.84895H10.6382V9.19716H10.678C10.9627 8.69394 11.3741 8.27998 11.8684 7.99934C12.3627 7.7187 12.9214 7.58191 13.4849 7.60352C16.4884 7.60352 17.0422 9.64578 17.0422 12.3026L17.0409 17.7146ZM4.44969 6.50051C3.49992 6.50067 2.72984 5.70486 2.72969 4.72307C2.72953 3.74127 3.4993 2.94522 4.44906 2.94506C5.39883 2.94482 6.16891 3.74062 6.16906 4.72242C6.16915 5.1939 5.98805 5.6461 5.6656 5.97956C5.34316 6.31301 4.90578 6.5004 4.44969 6.50051ZM5.93141 17.7146H2.96492V7.84895H5.93133V17.7146L5.93141 17.7146ZM18.5183 0.100138H1.47586C0.67039 0.0907694 0.00984375 0.757764 0 1.5904V19.2811C0.00953125 20.1141 0.67 20.7817 1.47578 20.773H18.5183C19.3258 20.7834 19.9888 20.1157 20 19.2811V1.58902C19.9885 0.754776 19.3254 0.087862 18.5183 0.0987646" fill="#757575"/>
</svg>
