<svg width="104" height="108" viewBox="0 0 104 108" fill="none" xmlns="http://www.w3.org/2000/svg">
<ellipse cx="52" cy="55.5" rx="52" ry="52.5" fill="#C4C4C4"/>
<path d="M88.6125 92.0226H73.203V66.962C73.203 60.9861 73.1003 53.2932 65.1885 53.2932C57.1627 53.2932 55.9346 59.8044 55.9346 66.527V92.0209H40.5255V40.4864H55.3183V47.5291H55.5255C57.0059 44.9004 59.1452 42.7379 61.7154 41.2719C64.2857 39.8059 67.1908 39.0914 70.1212 39.2043C85.7395 39.2043 88.619 49.8726 88.619 63.7515L88.6125 92.0226ZM23.138 33.4423C18.1992 33.4431 14.1948 29.286 14.194 24.1573C14.1932 19.0285 18.196 14.8701 23.1348 14.8693C28.0735 14.868 32.0779 19.0251 32.0788 24.1539C32.0792 26.6168 31.1375 28.979 29.4608 30.7209C27.7841 32.4628 25.5097 33.4417 23.138 33.4423ZM30.8429 92.023H15.4172V40.4864H30.8425V92.0226L30.8429 92.023ZM96.2947 0.00786033H7.6741C3.48566 -0.0410772 0.0508213 3.44319 -0.000366211 7.79272V100.206C0.0491963 104.557 3.48363 108.045 7.6737 107.999H96.2947C100.494 108.053 103.942 104.566 104 100.206V7.78555C103.94 3.42758 100.492 -0.0562647 96.2947 0.000688455" fill="#0A66C2"/>
</svg>
