<svg width="53" height="46" viewBox="0 0 53 46" fill="none" xmlns="http://www.w3.org/2000/svg">
<path d="M37.5417 10.7813C37.5417 15.6867 30.8155 24.4285 27.8618 27.9504C27.1533 28.8938 25.8467 28.8938 25.1382 27.9504C22.1845 24.4285 15.4583 15.6867 15.4583 10.7813C15.4583 4.82731 20.3995 0 26.5 0C32.6005 0 37.5417 4.82731 37.5417 10.7813ZM26.5 13.6563C28.5335 13.6563 30.1806 12.048 30.1806 10.0625C30.1806 8.07785 28.5335 6.46875 26.5 6.46875C24.4665 6.46875 22.8194 8.07785 22.8194 10.0625C22.8194 12.048 24.4665 13.6563 26.5 13.6563ZM39.1611 16.1539C39.2071 16.0461 39.2531 15.9383 39.2991 15.8215L49.9727 11.6527C51.4266 11.0867 53 12.1289 53 13.6563V37.9859C53 38.8664 52.4479 39.657 51.6106 39.9895L38.2778 45.1914V18.0047C38.5998 17.3848 38.8943 16.7738 39.1611 16.1539ZM13.8389 16.1539C14.1057 16.7738 14.4002 17.3848 14.7222 18.0047V40.5914L3.02818 45.1645C1.57804 45.6496 0 44.6883 0 43.1609V18.8313C0 17.9508 0.549783 17.0793 1.38849 16.8277L12.6611 12.4254C12.8819 13.7012 13.3328 14.968 13.8389 16.1539ZM30.1622 29.7473C31.4411 28.2648 33.447 25.7223 35.3333 22.9102V45.3082L17.6667 40.3758V22.9102C19.553 25.7223 21.5589 28.2648 22.8378 29.7473C24.7241 32.1281 28.2759 32.1281 30.1622 29.7473Z" fill="#E4E3E3"/>
</svg>
