<svg width="50" height="50" viewBox="0 0 50 50" fill="none" xmlns="http://www.w3.org/2000/svg">
<path d="M43.2969 6.7031C43.0861 6.49321 42.8196 6.3479 42.529 6.28424C42.2384 6.22057 41.9356 6.24121 41.6563 6.34373L7.28131 18.8437C6.98486 18.9562 6.72962 19.1561 6.54952 19.4171C6.36941 19.678 6.27295 19.9876 6.27295 20.3047C6.27295 20.6217 6.36941 20.9313 6.54952 21.1922C6.72962 21.4532 6.98486 21.6532 7.28131 21.7656L20.7032 27.125L30.6094 17.1875L32.8126 19.3906L22.8594 29.3437L28.2344 42.7656C28.3502 43.0563 28.5506 43.3056 28.8097 43.4811C29.0688 43.6566 29.3746 43.7503 29.6876 43.75C30.0033 43.7435 30.3097 43.6415 30.5663 43.4574C30.8229 43.2733 31.0177 43.0158 31.1251 42.7187L43.6251 8.34373C43.7315 8.06728 43.7572 7.76627 43.6991 7.47579C43.641 7.18531 43.5015 6.91734 43.2969 6.7031Z" fill="#757575"/>
</svg>
