<svg width="53" height="49" viewBox="0 0 53 49" fill="none" xmlns="http://www.w3.org/2000/svg">
<g clip-path="url(#clip0_58_503)">
<path d="M48.5833 30.1385V46.7617C48.5834 48.4566 47.882 50.0872 46.623 51.3192C45.364 52.5511 43.6428 53.291 41.8125 53.3869L41.4062 53.3971H11.5937C9.76049 53.3972 7.99671 52.7488 6.6642 51.5848C5.33169 50.4208 4.53146 48.8295 4.42767 47.1374L4.41663 46.7617V30.1385L25.7315 40.4611C25.9686 40.576 26.2323 40.6359 26.5 40.6359C26.7676 40.6359 27.0313 40.576 27.2685 40.4611L48.5833 30.1385ZM11.5937 20.7305H41.4062C43.1852 20.7303 44.9009 21.3409 46.2205 22.444C47.5401 23.547 48.3695 25.0639 48.548 26.7003L26.5 37.3782L4.45196 26.7003C4.62316 25.1289 5.39503 23.6654 6.62882 22.573C7.86262 21.4806 9.47742 20.8309 11.183 20.7407L11.5937 20.7305H41.4062H11.5937Z" fill="#E4E3E3"/>
</g>
<defs>
<clipPath id="clip0_58_503">
<rect width="53" height="49" fill="white"/>
</clipPath>
</defs>
</svg>
