<svg width="36" height="36" viewBox="0 0 36 36" fill="none" xmlns="http://www.w3.org/2000/svg">
<path d="M15.36 15.2202C13.2424 17.3077 11.6074 19.8335 10.57 22.6202L13.57 26.3902C13.647 26.502 13.6882 26.6345 13.6882 26.7702C13.6882 26.906 13.647 27.0385 13.57 27.1502L9.06002 34.1502C8.90024 34.416 8.68087 34.6409 8.41922 34.8073C8.15757 34.9737 7.86081 35.077 7.55239 35.109C7.24397 35.141 6.93233 35.1009 6.64209 34.9918C6.35184 34.8826 6.09095 34.7075 5.88002 34.4802L2.64001 31.2002C2.17589 30.7305 1.83528 30.1532 1.64857 29.5198C1.46186 28.8864 1.43488 28.2166 1.57001 27.5702C2.9017 21.1224 6.02051 15.1794 10.57 10.4202C15.1648 5.76672 21.0112 2.54651 27.4 1.15024C28.0364 1.0123 28.6976 1.04109 29.3195 1.23381C29.9415 1.42654 30.5031 1.77665 30.95 2.25024L34.23 5.65024C34.4462 5.86064 34.612 6.11722 34.715 6.40079C34.818 6.68435 34.8555 6.98754 34.8248 7.28765C34.794 7.58776 34.6957 7.87702 34.5373 8.13377C34.3789 8.39052 34.1644 8.60811 33.91 8.77024L27 13.4302C26.8915 13.5106 26.76 13.554 26.625 13.554C26.49 13.554 26.3585 13.5106 26.25 13.4302L22.56 10.3602C19.8291 11.4258 17.3696 13.086 15.36 15.2202Z" fill="#757575"/>
</svg>
