<svg width="49" height="50" viewBox="0 0 49 50" fill="none" xmlns="http://www.w3.org/2000/svg">
<g clip-path="url(#clip0_58_501)">
<path d="M46.3595 35.1135L41.601 30.258C40.7398 29.3797 39.6612 28.7563 38.4801 28.4545C37.299 28.1526 36.0598 28.1836 34.8945 28.544C33.7293 28.9044 32.6818 29.5807 31.8637 30.501C31.0457 31.4212 30.4877 32.5507 30.2494 33.7691C22.4025 32.2718 14.7708 24.5163 14.2958 17.5843C15.6298 17.3339 16.8575 16.6751 17.8156 15.6955C19.0772 14.408 19.7859 12.6619 19.7859 10.8413C19.7859 9.02066 19.0772 7.27459 17.8156 5.98712L13.0585 1.13157C11.7968 -0.155726 10.0857 -0.878906 8.30144 -0.878906C6.51722 -0.878906 4.80607 -0.155726 3.54436 1.13157C-10.7283 15.6955 32.0868 59.3843 46.3595 44.8205C47.6203 43.5329 48.3285 41.7872 48.3285 39.967C48.3285 38.1468 47.6203 36.4011 46.3595 35.1135Z" fill="#E4E3E3"/>
</g>
<defs>
<clipPath id="clip0_58_501">
<rect width="49" height="50" fill="white"/>
</clipPath>
</defs>
</svg>
