<svg width="50" height="49" viewBox="0 0 50 49" fill="none" xmlns="http://www.w3.org/2000/svg">
<path fill-rule="evenodd" clip-rule="evenodd" d="M25 41.5846C35.3552 41.5846 43.75 33.3577 43.75 23.2096C43.75 13.0615 35.3552 4.83464 25 4.83464C14.6448 4.83464 6.24996 13.0615 6.24996 23.2096C6.24996 33.3577 14.6448 41.5846 25 41.5846ZM25 43.6263C36.5062 43.6263 45.8333 34.4858 45.8333 23.2096C45.8333 11.9335 36.5062 2.79297 25 2.79297C13.4937 2.79297 4.16663 11.9335 4.16663 23.2096C4.16663 34.4858 13.4937 43.6263 25 43.6263Z" fill="#E4E3E3"/>
<path d="M12.5 35.081C12.5 34.0265 13.3042 33.1353 14.375 33.019C22.4115 32.1472 27.625 32.2258 35.6438 33.0384C36.0442 33.0796 36.4237 33.2342 36.7359 33.4833C37.0482 33.7324 37.2797 34.0652 37.4021 34.4411C37.5245 34.817 37.5325 35.2197 37.4252 35.6C37.318 35.9803 37.1 36.3218 36.7979 36.5827C27.3344 44.6667 21.926 44.5554 13.1667 36.5909C12.7396 36.2029 12.5 35.6517 12.5 35.0821V35.081Z" fill="#E4E3E3"/>
<path fill-rule="evenodd" clip-rule="evenodd" d="M35.5364 34.0549C27.5812 33.2484 22.4426 33.1729 14.4885 34.0355C14.2266 34.0654 13.9853 34.1889 13.8105 34.3823C13.6358 34.5758 13.5401 34.8256 13.5416 35.0839C13.5416 35.3758 13.6655 35.6525 13.8749 35.8444C18.2166 39.7909 21.5062 41.5743 24.7218 41.5856C27.9489 41.5968 31.4155 39.8277 36.1135 35.8158C36.2627 35.6856 36.3701 35.5158 36.4227 35.3269C36.4753 35.1379 36.4708 34.9381 36.4096 34.7517C36.3485 34.5653 36.2334 34.4003 36.0784 34.2768C35.9234 34.1532 35.7351 34.0765 35.5364 34.0559V34.0549ZM14.2603 32.0061C22.3812 31.1251 27.6708 31.2047 35.752 32.0244C36.3544 32.0861 36.9254 32.3185 37.3951 32.6932C37.8648 33.068 38.2128 33.5688 38.3965 34.1344C38.5802 34.7 38.5917 35.3058 38.4295 35.8777C38.2673 36.4495 37.9384 36.9627 37.4833 37.3542C32.7176 41.4253 28.7489 43.6425 24.7155 43.6272C20.6708 43.6129 16.877 41.3579 12.4593 37.3409C12.143 37.0522 11.8909 36.7027 11.7186 36.3142C11.5464 35.9256 11.4577 35.5065 11.4583 35.0829C11.4567 34.3218 11.7418 33.5869 12.2588 33.0189C12.7759 32.451 13.4886 32.09 14.2603 32.005V32.0061Z" fill="#E4E3E3"/>
<path d="M33.3333 19.1257C33.3333 21.2916 32.4553 23.3688 30.8925 24.9004C29.3297 26.4319 27.2101 27.2923 25 27.2923C22.7898 27.2923 20.6702 26.4319 19.1074 24.9004C17.5446 23.3688 16.6666 21.2916 16.6666 19.1257C16.6666 16.9597 17.5446 14.8825 19.1074 13.3509C20.6702 11.8194 22.7898 10.959 25 10.959C27.2101 10.959 29.3297 11.8194 30.8925 13.3509C32.4553 14.8825 33.3333 16.9597 33.3333 19.1257Z" fill="#E4E3E3"/>
<path fill-rule="evenodd" clip-rule="evenodd" d="M25 25.2507C26.6576 25.2507 28.2473 24.6053 29.4194 23.4567C30.5915 22.308 31.25 20.7501 31.25 19.1257C31.25 17.5012 30.5915 15.9433 29.4194 14.7946C28.2473 13.646 26.6576 13.0007 25 13.0007C23.3424 13.0007 21.7526 13.646 20.5805 14.7946C19.4084 15.9433 18.75 17.5012 18.75 19.1257C18.75 20.7501 19.4084 22.308 20.5805 23.4567C21.7526 24.6053 23.3424 25.2507 25 25.2507ZM25 27.2923C27.2101 27.2923 29.3297 26.4319 30.8925 24.9004C32.4553 23.3688 33.3333 21.2916 33.3333 19.1257C33.3333 16.9597 32.4553 14.8825 30.8925 13.3509C29.3297 11.8194 27.2101 10.959 25 10.959C22.7898 10.959 20.6702 11.8194 19.1074 13.3509C17.5446 14.8825 16.6666 16.9597 16.6666 19.1257C16.6666 21.2916 17.5446 23.3688 19.1074 24.9004C20.6702 26.4319 22.7898 27.2923 25 27.2923Z" fill="#E4E3E3"/>
</svg>
