<svg width="68" height="68" viewBox="0 0 68 68" fill="none" xmlns="http://www.w3.org/2000/svg">
<path d="M38.7272 1.79102V8.50363H65.8867C67.0538 8.50363 68 9.44978 68 10.6171V56.8192C68 57.9864 67.0538 58.9325 65.8867 58.9325H38.7272V66.2088L0 59.355V8.63272L38.7272 1.79115V1.79102ZM25.8763 29.9758C26.0065 27.9122 25.5166 25.8203 24.1284 24.4823C22.4765 22.8897 21.3752 22.6108 16.6526 22.8553L12.8161 23.054V44.7231H16.7168V37.2007C23.9133 37.815 25.5813 33.6638 25.8761 29.9758H25.8763ZM21.393 29.9758C21.1892 33.4969 19.5584 33.3487 16.7167 33.3001V26.7527C19.9105 26.6401 21.289 27.0776 21.393 29.9758ZM62.7439 29.9568L55.4244 37.5912L47.7731 29.9568H53.4937V19.9268H38.7272V39.5354L44.6071 33.7493L53.3544 42.5028C53.3544 42.5028 44.7933 50.8528 44.5902 50.8528C44.3874 50.8528 38.7272 45.4549 38.7272 45.4549V56.7037H65.7525V10.7325H38.7272V16.3046H57.1156V29.9567H62.7439V29.9568Z" fill="#FB1B41"/>
</svg>
